<svg width="12" height="12" viewBox="0 0 12 12" fill="none" xmlns="http://www.w3.org/2000/svg">
<path fill-rule="evenodd" clip-rule="evenodd" d="M3.5034 0.5H11.0119C11.1447 0.5 11.272 0.552738 11.3659 0.646613C11.4597 0.740487 11.5125 0.867809 11.5125 1.00057V8.50908C11.5125 8.64184 11.4597 8.76916 11.3659 8.86304C11.272 8.95691 11.1447 9.00965 11.0119 9.00965C10.8792 9.00965 10.7518 8.95691 10.658 8.86304C10.5641 8.76916 10.5113 8.64184 10.5113 8.50908V2.2086L1.3543 11.3657C1.25941 11.4541 1.1339 11.5022 1.00422 11.4999C0.874538 11.4976 0.750807 11.4451 0.659095 11.3534C0.567382 11.2617 0.514848 11.1379 0.51256 11.0083C0.510272 10.8786 0.558408 10.7531 0.646829 10.6582L9.80388 1.50114H3.5034C3.37064 1.50114 3.24332 1.4484 3.14945 1.35452C3.05557 1.26065 3.00283 1.13333 3.00283 1.00057C3.00283 0.867809 3.05557 0.740487 3.14945 0.646613C3.24332 0.552738 3.37064 0.5 3.5034 0.5Z" fill="black"/>
</svg>
